<svg xmlns="http://www.w3.org/2000/svg" xmlns:xlink="http://www.w3.org/1999/xlink" width="1920" zoomAndPan="magnify" viewBox="0 0 1440 809.999993" height="1080" preserveAspectRatio="xMidYMid meet" version="1.2"><g id="668afafa9c"><path style=" stroke:none;fill-rule:nonzero;fill:#ffde59;fill-opacity:1;" d="M 1236.8125 475.832031 C 1236.8125 475.539062 1236.8125 475.246094 1236.8125 474.953125 C 1236.125 475.097656 1235.441406 475.195312 1234.757812 475.34375 C 1234.804688 475.488281 1234.804688 475.636719 1234.855469 475.832031 C 1235.492188 475.832031 1236.175781 475.832031 1236.8125 475.832031 Z M 275.3125 456.859375 C 274.1875 455.976562 274.628906 455.976562 273.601562 456.566406 C 274.484375 457.59375 274.089844 457.394531 275.3125 456.859375 Z M 1137.542969 362.917969 C 1135.976562 361.160156 1135 361.402344 1133.921875 362.722656 C 1134.902344 362.773438 1135.878906 362.820312 1137.542969 362.917969 Z M 1170.988281 472.554688 C 1170.5 473.144531 1170.257812 473.386719 1170.0625 473.632812 C 1171.085938 474.464844 1172.015625 474.414062 1170.988281 472.554688 Z M 363.628906 462.824219 C 363.628906 463.019531 363.679688 463.167969 363.679688 463.3125 C 365.339844 463.558594 364.707031 463.703125 366.171875 462.726562 C 366.074219 462.578125 366.027344 462.433594 365.929688 462.285156 C 365.144531 462.480469 364.410156 462.679688 363.628906 462.824219 Z M 1186.636719 366.292969 C 1186.589844 366 1186.589844 365.707031 1186.539062 365.414062 C 1185.953125 365.558594 1185.367188 365.65625 1184.78125 365.804688 C 1184.828125 366 1184.828125 366.148438 1184.878906 366.34375 C 1185.464844 366.34375 1186.050781 366.292969 1186.636719 366.292969 Z M 1284.246094 438.226562 C 1283.265625 436.957031 1283.855469 436.957031 1282.238281 437.785156 C 1282.777344 438.714844 1282.238281 438.863281 1284.246094 438.226562 Z M 1229.476562 460.527344 C 1229.425781 460.136719 1229.425781 459.792969 1229.378906 459.402344 C 1228.203125 459.546875 1227.03125 459.742188 1225.855469 459.890625 C 1225.855469 460.085938 1225.90625 460.332031 1225.90625 460.527344 C 1227.078125 460.527344 1228.300781 460.527344 1229.476562 460.527344 Z M 1108.984375 471.773438 C 1107.957031 470.796875 1107.027344 470.355469 1106.097656 472.359375 C 1107.417969 472.117188 1108.199219 471.921875 1108.984375 471.773438 Z M 1098.761719 471.429688 C 1098.859375 471.136719 1098.910156 470.894531 1098.957031 470.601562 C 1097.882812 470.304688 1096.757812 470.0625 1095.632812 469.816406 C 1095.582031 470.109375 1095.535156 470.402344 1095.4375 470.746094 C 1096.5625 470.992188 1097.6875 471.1875 1098.761719 471.429688 Z M 1185.609375 375.976562 C 1185.5625 376.269531 1185.5625 376.5625 1185.511719 376.855469 C 1186.246094 376.855469 1186.980469 376.855469 1187.714844 376.855469 C 1187.714844 376.613281 1187.714844 376.414062 1187.714844 376.171875 C 1187.03125 376.121094 1186.296875 376.023438 1185.609375 375.976562 Z M 466.957031 461.796875 C 463.878906 460.476562 463.191406 462.921875 464.21875 463.3125 C 465.636719 463.898438 466.519531 463.460938 466.957031 461.796875 Z M 472.140625 465.515625 C 472.191406 465.121094 472.238281 464.78125 472.289062 464.390625 C 470.96875 463.851562 469.648438 463.117188 467.640625 464.925781 C 469.550781 465.171875 470.820312 465.320312 472.140625 465.515625 Z M 1140.71875 475 C 1140.769531 474.660156 1140.816406 474.316406 1140.867188 473.972656 C 1139.351562 473.042969 1137.835938 472.703125 1136.269531 474.707031 C 1137.738281 474.804688 1139.203125 474.902344 1140.71875 475 Z M 187.4375 398.960938 C 183.527344 397.34375 181.421875 397.394531 178.832031 398.960938 C 182.058594 398.960938 184.796875 398.960938 187.4375 398.960938 Z M 465.882812 457.542969 C 465.929688 457.933594 465.929688 458.277344 465.929688 458.667969 C 468.179688 458.472656 470.429688 458.277344 472.679688 458.082031 C 472.628906 457.789062 472.628906 457.542969 472.628906 457.25 C 470.382812 456.613281 468.132812 456.90625 465.882812 457.542969 Z M 109.636719 420.769531 C 109.636719 421.015625 109.636719 421.355469 109.585938 421.601562 C 113.5 421.601562 117.410156 421.601562 121.324219 421.601562 C 121.324219 421.601562 121.324219 421.550781 121.371094 421.550781 C 117.460938 421.257812 113.546875 421.015625 109.636719 420.769531 Z M 1130.839844 362.382812 C 1127.320312 362.578125 1123.847656 362.773438 1120.375 362.96875 C 1123.214844 364.335938 1129.082031 364.140625 1130.839844 362.382812 Z M 338.835938 446.492188 C 333.703125 443.898438 328.46875 443.703125 326.023438 445.316406 C 326.464844 446.34375 324.65625 445.90625 338.835938 446.492188 Z M 386.222656 438.324219 C 388.421875 439.792969 393.261719 440.378906 396.296875 436.664062 C 392.335938 436.464844 389.253906 436.957031 386.222656 438.324219 Z M 1252.3125 459.839844 C 1252.363281 459.546875 1252.363281 459.207031 1252.363281 458.914062 C 1249.964844 457.496094 1243.363281 457.347656 1240.429688 458.667969 C 1241.898438 463.265625 1240.039062 459.839844 1252.3125 459.839844 Z M 400.746094 460.769531 C 406.808594 461.796875 405.246094 462.53125 424.558594 460.234375 C 420.453125 456.859375 414.339844 460.332031 405 460.085938 C 403.582031 460.035156 402.113281 459.304688 400.746094 460.769531 Z M 305.878906 447.324219 C 323.96875 447.324219 324.605469 448.054688 324.214844 445.121094 C 318.6875 444.878906 313.308594 444.632812 307.882812 444.4375 C 307.246094 445.367188 306.660156 446.148438 305.878906 447.324219 Z M 1140.914062 363.800781 C 1144.09375 366.097656 1161.941406 365.609375 1162.824219 366.878906 C 1163.214844 365.707031 1163.558594 364.726562 1163.851562 363.75 C 1163.410156 363.652344 1162.96875 363.40625 1162.628906 363.554688 C 1159.203125 365.023438 1155.632812 361.402344 1152.210938 363.703125 C 1152.066406 363.800781 1151.671875 363.703125 1151.476562 363.554688 C 1147.957031 360.914062 1144.484375 364.484375 1140.914062 363.800781 Z M 312.625 367.125 C 312.675781 367.46875 312.722656 367.859375 312.722656 368.199219 C 328.46875 368.152344 329.546875 368.394531 360.890625 367.027344 C 355.023438 365.21875 318.054688 366.097656 312.625 367.125 Z M 464.171875 458.324219 C 455.757812 454.167969 454.734375 461.652344 446.273438 461.554688 C 430.039062 461.457031 429.941406 460.964844 429.402344 463.851562 C 442.117188 464.78125 440.308594 464.535156 452.726562 462.53125 C 453.949219 460.183594 454.4375 461.40625 464.171875 458.324219 Z M 1131.574219 474.953125 C 1131.574219 474.707031 1131.574219 474.414062 1131.574219 474.121094 C 1116.855469 473.339844 1117.101562 473.730469 1117.101562 471.429688 C 1114.753906 471.625 1112.257812 469.621094 1110.011719 472.261719 C 1108.738281 473.679688 1106.488281 473.191406 1105.21875 471.578125 C 1103.015625 468.644531 1103.40625 472.164062 1091.425781 472.164062 C 1092.113281 475.246094 1126.539062 475.292969 1131.574219 474.953125 Z M 167.976562 438.519531 C 165.480469 434.707031 116.726562 436.269531 112.71875 434.460938 C 119.660156 433.09375 148.269531 434.414062 154.28125 434.949219 C 154.039062 434.023438 153.890625 433.582031 153.550781 432.359375 C 155.945312 434.949219 158.585938 434.949219 161.324219 434.902344 C 161.324219 434.414062 161.226562 433.972656 161.179688 433.042969 C 175.457031 437.054688 334.730469 437.785156 359.128906 437.25 C 357.46875 434.558594 205.238281 431.917969 201.863281 430.0625 C 198.980469 432.015625 197.121094 428.152344 194.234375 428.789062 C 190.761719 429.472656 170.664062 428.542969 152.328125 425.660156 C 152.425781 425.316406 152.570312 424.828125 152.816406 424.09375 C 152.132812 423.851562 133.15625 423.359375 131.59375 424.339844 C 128.464844 423.066406 95.894531 422.53125 93.9375 422.578125 C 96.578125 419.695312 98.242188 423.703125 105.136719 420.71875 C 102.449219 420.574219 99.757812 420.378906 97.070312 420.183594 C 97.070312 419.890625 97.070312 419.546875 97.070312 419.253906 C 122.449219 417.6875 135.457031 420.476562 146.800781 418.273438 C 141.273438 417.054688 139.367188 420.035156 137.363281 416.222656 C 127.777344 414.558594 136.042969 415.046875 110.710938 414.511719 C 110.273438 414.511719 109.832031 414.3125 109.441406 413.777344 C 128.804688 413.042969 148.171875 412.308594 167.535156 411.574219 C 167.535156 411.234375 167.585938 410.84375 167.585938 410.5 C 167.585938 410.5 134.96875 409.375 120.492188 407.808594 C 123.425781 404.09375 226.414062 406.097656 227.195312 401.84375 C 221.863281 400.476562 180.054688 400.816406 170.226562 400.035156 C 172.375 399.59375 174.527344 399.105469 176.730469 398.664062 C 173.453125 396.757812 153.257812 396.5625 152.035156 396.515625 C 152.035156 396.222656 152.035156 395.925781 151.984375 395.632812 C 159.320312 395.242188 182.402344 394.117188 191.9375 396.710938 C 189.394531 393.582031 186.460938 394.65625 183.136719 393.679688 C 190.8125 392.945312 197.707031 394.167969 205.089844 392.894531 C 202.15625 390.449219 199.125 391.625 196.535156 390.792969 C 198.441406 390.5 200.496094 389.621094 202.207031 390.011719 C 209.199219 391.671875 220.789062 386.929688 221.523438 392.601562 C 250.519531 392.160156 246.558594 392.113281 257.808594 390.011719 C 244.898438 385.804688 174.722656 385.953125 173.695312 386.050781 C 173.011719 385.21875 172.328125 384.386719 171.546875 383.457031 C 172.71875 382.625 210.8125 383.3125 213.601562 382.527344 C 204.796875 379.15625 131.347656 378.714844 130.273438 378.664062 C 143.964844 373.726562 226.949219 380.179688 228.222656 381.160156 C 226.804688 381.550781 225.433594 381.894531 224.015625 382.285156 C 224.015625 382.480469 224.015625 382.625 224.015625 382.820312 C 242.890625 383.359375 243.285156 382.625 244.996094 385.953125 C 247.683594 379.007812 243.773438 382.136719 240.839844 381.207031 C 246.511719 378.617188 265.09375 381.941406 273.992188 379.398438 C 285.484375 376.074219 282.601562 378.566406 294.582031 376.710938 C 291.058594 373.871094 287.292969 375.878906 284.164062 374.167969 C 303.921875 374.167969 306.609375 371.230469 310.179688 372.945312 C 312.234375 373.972656 319.714844 374.996094 327.101562 372.652344 C 325.144531 372.652344 323.238281 372.652344 321.28125 372.652344 C 321.28125 372.453125 321.28125 372.257812 321.230469 372.015625 C 324.117188 371.769531 327.003906 371.476562 329.839844 371.183594 C 322.796875 369.324219 319.617188 369.714844 278.492188 369.714844 C 281.574219 365.949219 303.53125 369.960938 309.839844 367.566406 C 305.144531 364.679688 214.726562 372.652344 207.097656 368.394531 C 211.449219 365.414062 256.683594 367.566406 260.886719 365.363281 C 259.566406 363.457031 257.757812 363.507812 255.949219 363.457031 C 198.539062 362.578125 231.839844 362.085938 211.839844 360.570312 L 211.890625 360.667969 C 212.621094 360.132812 213.355469 359.59375 214.332031 358.910156 C 213.699219 358.46875 213.011719 357.980469 211.546875 357.003906 C 220.105469 357.003906 227.832031 357.003906 235.507812 357.003906 C 235.507812 356.707031 235.507812 356.367188 235.507812 356.074219 C 210.765625 355.191406 185.972656 357.003906 161.128906 355.484375 C 166.066406 355.242188 171.007812 354.996094 175.945312 354.703125 C 173.304688 354.117188 165.824219 353.773438 164.746094 353.726562 C 164.746094 353.382812 164.796875 353.042969 164.796875 352.699219 C 172.914062 352.601562 343.921875 345.558594 345.144531 344.628906 C 345.046875 341.941406 307.199219 345.265625 296.292969 345.265625 C 299.128906 340.960938 340.792969 343.113281 346.5625 341.207031 C 375.414062 342.625 353.261719 340.082031 373.019531 341.988281 C 372.773438 341.058594 372.578125 340.570312 372.433594 340.035156 C 374.046875 340.035156 374.144531 340.082031 375.171875 341.453125 C 467.25 333.675781 492.484375 335.484375 513.855469 333.382812 C 512.484375 332.355469 511.898438 331.914062 511.214844 331.378906 C 513.855469 330.253906 550.96875 330.988281 551.996094 330.988281 C 721.292969 335.191406 687.601562 322.574219 780.609375 334.703125 C 789.804688 328.738281 1106.832031 357.441406 1107.859375 357.492188 C 1110.695312 360.179688 1197.886719 364.628906 1198.472656 363.308594 C 1207.617188 367.90625 1212.800781 363.015625 1220.378906 366.246094 C 1217.300781 366.246094 1218.863281 366.148438 1214.660156 366.585938 C 1219.890625 368.691406 1222.335938 370.207031 1223.851562 367.90625 C 1224.929688 366.292969 1231.332031 366.539062 1233.730469 369.667969 C 1236.175781 367.074219 1247.765625 370.011719 1248.839844 370.207031 C 1247.910156 373.238281 1250.601562 372.503906 1252.261719 372.847656 C 1252.117188 373.089844 1252.019531 373.335938 1251.871094 373.578125 C 1249.183594 373.238281 1166.539062 362.722656 1164.878906 365.753906 C 1166.246094 367.320312 1215.292969 372.652344 1217.003906 372.847656 C 1214.757812 374.507812 1212.652344 372.40625 1210.796875 373.675781 C 1212.847656 376.316406 1225.171875 374.214844 1230.0625 378.175781 C 1232.164062 378.078125 1235.148438 376.515625 1237.691406 379.351562 C 1233.046875 378.175781 1232.753906 380.230469 1219.449219 380.230469 C 1219.402344 379.9375 1219.402344 379.644531 1219.351562 379.398438 C 1220.085938 379.105469 1220.820312 378.761719 1221.601562 378.46875 C 1220.527344 377.492188 1212.066406 375.046875 1210.84375 376.90625 C 1207.714844 381.550781 1202.285156 376.808594 1199.109375 379.984375 C 1239.207031 388.25 1201.160156 378.46875 1246.347656 388.25 L 1246.25 388.101562 C 1243.753906 390.109375 1244.734375 387.90625 1231.136719 387.125 C 1235.246094 392.945312 1265.171875 397.050781 1266.445312 397.246094 C 1266.445312 397.492188 1266.394531 397.738281 1266.347656 397.980469 C 1231.1875 393.140625 1216.027344 391.574219 1216.027344 391.574219 C 1219.207031 396.269531 1267.375 401.648438 1276.566406 405.707031 C 1274.613281 406.246094 1252.261719 403.457031 1247.910156 403.605469 C 1258.867188 407.761719 1253.925781 406.882812 1266.347656 406.882812 C 1266.25 407.808594 1266.152344 408.738281 1266.054688 409.960938 C 1296.128906 416.953125 1268.9375 413.628906 1323.660156 422.089844 C 1323.660156 422.335938 1323.609375 422.578125 1323.5625 422.824219 C 1259.792969 415.195312 1259.746094 412.601562 1256.566406 416.613281 C 1267.667969 419.695312 1266.933594 416.5625 1268.109375 416.660156 C 1268.9375 416.710938 1276.761719 418.8125 1277.984375 420.035156 C 1277.984375 420.035156 1269.429688 419.105469 1257.496094 419.105469 C 1258.964844 421.0625 1257.9375 420.230469 1279.894531 423.558594 C 1287.960938 424.777344 1287.179688 428.007812 1291.972656 428.59375 C 1315.445312 431.578125 1307.523438 429.667969 1313.4375 431.96875 C 1313.390625 432.261719 1313.339844 432.503906 1313.242188 432.75 C 1291.875 432.75 1298.574219 429.765625 1291.875 431.96875 C 1296.371094 432.898438 1300.921875 433.433594 1305.371094 434.460938 C 1305.320312 434.804688 1305.320312 435.097656 1305.320312 435.390625 C 1303.21875 435.539062 1301.117188 435.683594 1299.0625 435.832031 C 1299.0625 436.074219 1299.011719 436.320312 1299.011719 436.5625 C 1335.152344 441.550781 1339.113281 441.746094 1345.8125 444.632812 C 1339.699219 443.605469 1314.613281 439.15625 1309.820312 440.671875 C 1308.792969 439.839844 1285.710938 435.539062 1285.761719 439.207031 C 1293.683594 441.550781 1289.429688 440.183594 1301.703125 444.242188 C 1301.066406 446.34375 1299.0625 445.171875 1297.9375 445.90625 C 1300.773438 447.714844 1310.457031 449.671875 1317.546875 449.621094 C 1318.035156 450.84375 1318.574219 452.113281 1319.210938 453.777344 C 1313.632812 450.648438 1321.214844 450.597656 1308.5 450.597656 C 1309.378906 451.234375 1309.917969 451.625 1311.238281 452.554688 C 1301.605469 452.457031 1292.851562 450.941406 1284.097656 451.527344 C 1285.710938 453.289062 1295.003906 453.386719 1298.769531 454.21875 C 1296.617188 454.21875 1294.464844 454.21875 1291.679688 454.21875 C 1292.265625 455.292969 1292.558594 455.832031 1293.046875 456.808594 C 1283.558594 459.109375 1267.667969 457.296875 1259.5 459.546875 C 1259.550781 459.546875 1289.234375 461.355469 1297.300781 462.140625 C 1297.15625 463.703125 1293.976562 461.652344 1294.757812 464.242188 C 1288.058594 464.78125 1184.339844 456.859375 1115.144531 468.9375 C 1117.246094 472.605469 1150.792969 470.746094 1152.601562 470.648438 C 1153.484375 470.601562 1153.53125 470.648438 1156.808594 473.679688 C 1153.726562 473.972656 1150.84375 474.21875 1147.957031 474.464844 C 1154.3125 475.683594 1160.574219 474.511719 1166.929688 474.21875 C 1165.757812 473.972656 1164.582031 473.777344 1163.410156 473.535156 C 1164.679688 470.355469 1167.46875 471.480469 1178.472656 470.304688 C 1181.308594 470.0625 1183.996094 469.082031 1186.785156 471.332031 C 1191.675781 475.292969 1190.453125 465.710938 1195.636719 470.941406 C 1201.796875 467.566406 1208.644531 469.378906 1215.246094 468.300781 C 1214.167969 472.800781 1210.0625 470.648438 1207.226562 472.554688 C 1208.59375 472.703125 1274.855469 471.382812 1283.023438 475.636719 C 1276.957031 476.515625 1270.945312 476.613281 1264.636719 475.785156 C 1265.222656 475.441406 1265.566406 475.195312 1265.90625 475 C 1265.761719 474.464844 1261.507812 474.21875 1260.871094 475 C 1257.984375 478.523438 1224.390625 475.148438 1220.917969 474.902344 C 1221.015625 475.734375 1221.164062 476.859375 1221.308594 477.984375 C 1219.546875 477.789062 1217.789062 478.667969 1216.273438 476.46875 C 1215 474.660156 1213.4375 478.277344 1211.578125 477.398438 C 1205.417969 486.25 1005.558594 479.058594 998.269531 481.113281 C 995.238281 476.222656 986.289062 477.933594 982.867188 478.179688 C 981.351562 478.277344 980.371094 482.238281 976.800781 478.128906 C 976.070312 477.347656 975.433594 477.835938 974.210938 479.792969 C 928.878906 484.488281 598.257812 464.925781 467.398438 474.023438 C 464.511719 474.167969 461.628906 474.363281 459.035156 473.042969 C 469.355469 472.359375 479.722656 471.675781 490.089844 470.941406 C 490.1875 470.796875 490.234375 470.601562 490.332031 470.402344 C 489.695312 470.109375 488.914062 469.328125 488.425781 469.523438 C 484.855469 470.84375 481.675781 468.886719 478.304688 468.449219 C 460.0625 466.246094 467.9375 470.992188 441.773438 470.746094 C 441.234375 470.746094 439.378906 469.328125 439.085938 469.425781 C 432.679688 471.480469 425.929688 470.550781 418.789062 471.722656 C 420.109375 472.066406 420.894531 472.3125 421.625 472.507812 C 419.476562 474.414062 419.476562 474.414062 413.949219 473.632812 C 414.195312 472.996094 414.4375 472.410156 414.683594 471.722656 C 416.734375 473.042969 316 469.816406 309.007812 467.859375 C 308.027344 469.425781 300.597656 468.546875 299.570312 468.449219 C 294.386719 467.8125 298.199219 466.246094 289.835938 465.90625 C 287.246094 465.808594 263.480469 466.148438 258.441406 463.605469 C 273.015625 463.605469 291.746094 463.070312 291.746094 463.070312 C 294.824219 466.882812 298.785156 464.925781 302.601562 464.535156 C 302.0625 464.097656 301.523438 463.703125 300.988281 463.265625 C 301.378906 462.1875 307.394531 462.042969 310.472656 463.214844 C 309.347656 463.65625 308.519531 464 307.34375 464.4375 C 309.496094 465.5625 318.347656 465.710938 323.1875 463.214844 C 323.1875 463.214844 357.566406 461.210938 357.613281 461.210938 C 362.015625 460.917969 363.089844 456.761719 367.25 461.0625 C 370.328125 464.292969 376.34375 464.488281 377.320312 463.460938 C 381.136719 459.351562 384.511719 464.632812 392.089844 460.183594 C 383.628906 459.792969 374.679688 456.859375 368.960938 459.011719 C 367.25 454.953125 367.6875 455.878906 358.59375 458.617188 C 344.800781 462.777344 345.046875 453.386719 338.640625 457.691406 C 339.617188 457.789062 340.597656 457.886719 341.722656 457.984375 C 339.421875 464.144531 333.652344 454.460938 323.96875 456.371094 C 323.96875 456.371094 316 455 305.339844 456.273438 C 305.339844 456.273438 303.53125 456.074219 298.738281 455.734375 C 277.808594 454.167969 282.0625 460.769531 265.042969 457.691406 C 262.109375 457.152344 259.03125 457.59375 256.046875 457.59375 C 255.996094 457.296875 255.996094 456.957031 255.996094 456.664062 C 259.761719 456.664062 263.480469 456.664062 267.246094 456.664062 C 267.246094 456.371094 267.292969 456.125 267.34375 455.832031 C 266.316406 455.585938 175.507812 449.425781 172.523438 448.59375 C 174.773438 447.324219 171.398438 447.371094 189.34375 448.007812 C 191.398438 448.105469 193.304688 451.773438 195.261719 448.25 C 201.667969 448.351562 194.234375 448.105469 223.28125 449.035156 C 225.726562 441.992188 267.878906 451.039062 304.800781 445.953125 C 304.800781 445.660156 304.800781 445.367188 304.753906 445.074219 C 294.433594 444.683594 254.089844 444.046875 234.382812 442.675781 C 227.636719 442.238281 226.851562 438.472656 217.804688 439.402344 C 215.996094 439.597656 218.539062 441.257812 214.871094 440.964844 C 213.84375 440.867188 186.410156 437.054688 185.382812 439.402344 C 185.335938 439.546875 184.457031 439.597656 184.355469 439.449219 C 182.890625 437.152344 180.789062 438.472656 178.929688 438.324219 C 173.550781 437.933594 170.175781 435.832031 167.925781 438.519531 L 167.976562 438.519531 "/><path style=" stroke:none;fill-rule:nonzero;fill:#ffde59;fill-opacity:1;" d="M 168.953125 461.601562 C 171.152344 461.40625 233.113281 464.683594 242.550781 466.050781 C 236.878906 467.324219 171.839844 463.851562 168.953125 461.601562 "/><path style=" stroke:none;fill-rule:nonzero;fill:#ffde59;fill-opacity:1;" d="M 246.558594 465.90625 C 261.914062 466.539062 277.222656 467.175781 292.871094 467.859375 C 289.789062 470.453125 263.136719 468.15625 246.460938 467.128906 C 246.511719 466.6875 246.558594 466.296875 246.558594 465.90625 "/><path style=" stroke:none;fill-rule:nonzero;fill:#ffde59;fill-opacity:1;" d="M 176.238281 360.816406 C 176.238281 360.082031 176.238281 359.300781 176.238281 358.222656 C 183.28125 356.511719 190.421875 358.125 197.464844 357.589844 C 194.136719 359.496094 194.722656 358.8125 183.28125 358.8125 C 183.476562 359.59375 183.671875 360.132812 183.867188 360.914062 C 181.421875 360.570312 179.808594 357.34375 176.632812 359.152344 C 177.460938 359.789062 178.195312 360.277344 179.417969 361.160156 C 178.050781 361.011719 177.121094 360.914062 176.238281 360.816406 "/><path style=" stroke:none;fill-rule:nonzero;fill:#ffde59;fill-opacity:1;" d="M 176.238281 360.816406 C 157.070312 362.1875 169.003906 361.597656 156.777344 359.9375 C 158.34375 358.273438 162.9375 357.003906 164.550781 358.421875 C 166.117188 359.839844 176.484375 361.160156 176.238281 360.816406 "/><path style=" stroke:none;fill-rule:nonzero;fill:#ffde59;fill-opacity:1;" d="M 234.285156 457.152344 C 235.3125 457.054688 249.152344 455.390625 252.820312 457.738281 C 246.21875 458.375 235.996094 457.984375 234.285156 457.152344 "/><path style=" stroke:none;fill-rule:nonzero;fill:#ffde59;fill-opacity:1;" d="M 203.476562 368.347656 C 201.277344 369.082031 190.960938 369.910156 189.394531 368.054688 C 194.136719 368.101562 198.832031 366.636719 203.476562 368.347656 "/><path style=" stroke:none;fill-rule:nonzero;fill:#ffde59;fill-opacity:1;" d="M 251.988281 345.609375 C 259.859375 345.363281 267.734375 345.117188 275.605469 344.875 C 275.65625 345.167969 275.65625 345.460938 275.703125 345.753906 C 274.285156 345.949219 253.40625 346.4375 251.9375 346.4375 C 251.988281 346.195312 251.988281 345.902344 251.988281 345.609375 "/><path style=" stroke:none;fill-rule:nonzero;fill:#ffde59;fill-opacity:1;" d="M 244.210938 460.671875 C 248.027344 460.671875 251.742188 460.671875 255.410156 460.671875 C 255.460938 460.769531 255.460938 460.867188 255.507812 461.015625 C 252.722656 461.847656 249.933594 462.726562 247.195312 463.558594 C 246.21875 462.578125 245.335938 461.75 244.210938 460.671875 "/><path style=" stroke:none;fill-rule:nonzero;fill:#ffde59;fill-opacity:1;" d="M 308.320312 457.394531 C 308.714844 457.640625 309.398438 458.226562 310.570312 459.15625 C 306.5625 459.839844 303.1875 459.695312 299.765625 458.765625 C 302.40625 458.375 305.046875 457.933594 308.320312 457.394531 "/><path style=" stroke:none;fill-rule:nonzero;fill:#ffde59;fill-opacity:1;" d="M 1224.242188 373.921875 C 1229.035156 374.460938 1233.875 374.996094 1238.667969 375.535156 C 1238.667969 375.878906 1238.621094 376.21875 1238.570312 376.5625 C 1233.730469 376.074219 1228.9375 375.535156 1224.097656 374.996094 C 1224.144531 374.65625 1224.195312 374.265625 1224.242188 373.921875 "/><path style=" stroke:none;fill-rule:nonzero;fill:#ffde59;fill-opacity:1;" d="M 1267.472656 372.601562 C 1265.222656 373.871094 1262.875 373.089844 1260.527344 374.460938 C 1259.160156 375.242188 1256.664062 374.070312 1254.707031 373.628906 C 1254.511719 373.628906 1254.5625 372.601562 1254.414062 371.574219 C 1258.71875 373.285156 1257.105469 373.285156 1267.472656 372.601562 "/><path style=" stroke:none;fill-rule:nonzero;fill:#ffde59;fill-opacity:1;" d="M 1286.398438 401.0625 C 1292.460938 401.550781 1298.425781 402.285156 1304.097656 404.777344 C 1284.585938 401.355469 1287.863281 402.089844 1286.496094 400.964844 L 1286.398438 401.0625 "/><path style=" stroke:none;fill-rule:nonzero;fill:#ffde59;fill-opacity:1;" d="M 1334.320312 455.78125 C 1330.652344 455.097656 1327.035156 454.363281 1323.414062 453.632812 C 1323.511719 453.289062 1323.5625 452.996094 1323.660156 452.652344 C 1330.308594 454.511719 1327.425781 453.972656 1334.417969 454.707031 C 1334.417969 455.097656 1334.367188 455.441406 1334.320312 455.78125 "/><path style=" stroke:none;fill-rule:nonzero;fill:#ffde59;fill-opacity:1;" d="M 231.253906 457.445312 C 228.90625 457.738281 226.609375 458.03125 224.308594 458.277344 C 226.316406 455.246094 228.808594 456.613281 231.253906 457.445312 "/><path style=" stroke:none;fill-rule:nonzero;fill:#ffde59;fill-opacity:1;" d="M 1314.222656 428.542969 C 1318.035156 427.273438 1321.3125 429.375 1324.832031 430.011719 C 1321.066406 430.941406 1317.839844 428.445312 1314.222656 428.542969 "/><path style=" stroke:none;fill-rule:nonzero;fill:#ffde59;fill-opacity:1;" d="M 279.617188 345.363281 C 282.84375 344.921875 286.070312 344.484375 289.347656 343.996094 C 286.414062 345.902344 283.089844 346 279.8125 346.292969 C 279.765625 346 279.664062 345.65625 279.617188 345.363281 "/><path style=" stroke:none;fill-rule:nonzero;fill:#ffde59;fill-opacity:1;" d="M 1298.183594 425.757812 C 1302.484375 426.441406 1305.957031 426.980469 1309.722656 427.566406 C 1306.59375 428.203125 1301.996094 427.566406 1298.183594 425.757812 "/><path style=" stroke:none;fill-rule:nonzero;fill:#ffde59;fill-opacity:1;" d="M 265.042969 461.113281 C 267.488281 461.113281 269.835938 461.113281 272.671875 461.113281 C 268.222656 463.070312 266.902344 463.070312 265.042969 461.113281 "/><path style=" stroke:none;fill-rule:nonzero;fill:#ffde59;fill-opacity:1;" d="M 1225.171875 469.867188 C 1228.15625 470.0625 1231.1875 470.257812 1234.171875 470.453125 C 1231.675781 471.285156 1226.882812 472.019531 1225.171875 469.816406 L 1225.171875 469.867188 "/><path style=" stroke:none;fill-rule:nonzero;fill:#ffde59;fill-opacity:1;" d="M 1291.140625 420.574219 C 1287.324219 422.285156 1284.390625 420.476562 1281.410156 419.546875 C 1284.441406 419.890625 1287.519531 420.183594 1291.140625 420.574219 "/><path style=" stroke:none;fill-rule:nonzero;fill:#ffde59;fill-opacity:1;" d="M 185.824219 368.296875 C 183.429688 369.519531 181.179688 368.296875 179.125 368.835938 C 181.421875 367.371094 182.449219 367.269531 185.824219 368.296875 "/><path style=" stroke:none;fill-rule:nonzero;fill:#ffde59;fill-opacity:1;" d="M 1286.496094 400.964844 C 1283.804688 400.816406 1281.117188 400.671875 1278.425781 400.523438 C 1281.3125 399.007812 1283.855469 399.9375 1286.398438 401.0625 C 1286.398438 401.0625 1286.496094 400.964844 1286.496094 400.964844 "/><path style=" stroke:none;fill-rule:nonzero;fill:#ffde59;fill-opacity:1;" d="M 167.925781 438.519531 C 170.714844 438.667969 173.5 438.765625 176.238281 438.863281 C 173.355469 440.527344 170.761719 438.765625 167.976562 438.519531 C 167.976562 438.519531 167.925781 438.519531 167.925781 438.519531 "/><path style=" stroke:none;fill-rule:nonzero;fill:#ffde59;fill-opacity:1;" d="M 1305.222656 464.925781 C 1302.972656 464.925781 1300.675781 464.925781 1298.328125 464.925781 C 1298.769531 464.046875 1297.59375 464.339844 1305.417969 464.339844 C 1305.320312 464.535156 1305.273438 464.730469 1305.222656 464.925781 "/><path style=" stroke:none;fill-rule:nonzero;fill:#ffde59;fill-opacity:1;" d="M 1305.910156 453.875 C 1302.484375 456.371094 1301.703125 457.59375 1300.871094 455.050781 C 1302.582031 454.804688 1303.902344 453.289062 1305.859375 453.925781 L 1305.910156 453.875 "/><path style=" stroke:none;fill-rule:nonzero;fill:#ffde59;fill-opacity:1;" d="M 1246.347656 388.25 C 1246.25 387.859375 1246.199219 387.46875 1246.003906 386.488281 C 1247.570312 386.78125 1248.890625 387.027344 1250.210938 387.222656 C 1250.210938 387.46875 1250.210938 387.664062 1250.210938 387.859375 C 1248.890625 387.957031 1247.570312 388.054688 1246.25 388.101562 C 1246.25 388.101562 1246.347656 388.25 1246.347656 388.25 "/><path style=" stroke:none;fill-rule:nonzero;fill:#ffde59;fill-opacity:1;" d="M 1305.859375 453.925781 C 1306.789062 455 1307.71875 456.027344 1308.648438 457.101562 C 1308.011719 457.25 1307.425781 457.394531 1306.738281 457.542969 C 1304.832031 455.441406 1305.859375 453.925781 1305.859375 453.925781 "/><path style=" stroke:none;fill-rule:nonzero;fill:#ffde59;fill-opacity:1;" d="M 1225.171875 469.816406 C 1223.65625 471.234375 1221.796875 471.332031 1219.84375 471.089844 C 1221.261719 468.742188 1223.363281 470.160156 1225.171875 469.914062 C 1225.171875 469.867188 1225.171875 469.816406 1225.171875 469.816406 "/></g></svg>